<svg xmlns="http://www.w3.org/2000/svg" width="46" height="46" viewBox="0 0 48 48">
  <g>
    <path fill="#4285F4" d="M24 9.5c3.54 0 6.7 1.22 9.19 3.23l6.85-6.85C36.18 2.13 30.45 0 24 0 14.82 0 6.71 5.08 2.69 12.44l7.98 6.2C12.36 13.13 17.74 9.5 24 9.5z"/>
    <path fill="#34A853" d="M46.14 24.55c0-1.64-.15-3.22-.42-4.74H24v9.01h12.44c-.54 2.9-2.18 5.36-4.65 7.01l7.2 5.6C43.98 37.13 46.14 31.36 46.14 24.55z"/>
    <path fill="#FBBC05" d="M10.67 28.64c-1.01-2.9-1.01-6.04 0-8.94l-7.98-6.2C.7 17.13 0 20.47 0 24c0 3.53.7 6.87 1.98 10.5l7.98-6.2z"/>
    <path fill="#EA4335" d="M24 48c6.45 0 12.18-2.13 16.04-5.81l-7.2-5.6c-2.01 1.35-4.6 2.16-8.84 2.16-6.26 0-11.64-3.63-13.33-8.94l-7.98 6.2C6.71 42.92 14.82 48 24 48z"/>
    <path fill="none" d="M0 0h48v48H0z"/>
  </g>
</svg> 